<?xml version="1.0" encoding="UTF-8"?>
<svg xmlns="http://www.w3.org/2000/svg" width="1200" height="630" viewBox="0 0 1200 630" role="img" aria-labelledby="title desc">
  <title id="title">yolobox social card</title>
  <desc id="desc">The yolobox logo with the tagline Run AI coding agents in a sandboxed container.</desc>
  <defs>
    <linearGradient id="card-bg" x1="0" y1="0" x2="1" y2="1">
      <stop offset="0%" stop-color="#14141A"/>
      <stop offset="100%" stop-color="#08080A"/>
    </linearGradient>
    <radialGradient id="card-glow" cx="32%" cy="28%" r="58%">
      <stop offset="0%" stop-color="#FF8C00" stop-opacity="0.26"/>
      <stop offset="100%" stop-color="#FF8C00" stop-opacity="0"/>
    </radialGradient>
    <pattern id="card-grid" width="36" height="36" patternUnits="userSpaceOnUse">
      <path d="M36 0H0V36" fill="none" stroke="white" stroke-opacity="0.05"/>
    </pattern>
    <linearGradient id="badge-bg" x1="0" y1="0" x2="0" y2="1">
      <stop offset="0%" stop-color="#15151B"/>
      <stop offset="100%" stop-color="#09090B"/>
    </linearGradient>
  </defs>
  <rect width="1200" height="630" rx="32" fill="url(#card-bg)"/>
  <rect width="1200" height="630" rx="32" fill="url(#card-grid)"/>
  <rect x="24" y="24" width="1152" height="582" rx="24" fill="none" stroke="white" stroke-opacity="0.08"/>
  <ellipse cx="420" cy="188" rx="520" ry="220" fill="url(#card-glow)"/>

  <rect x="88" y="54" width="180" height="38" rx="19" fill="#2B1B08" stroke="#FF8C00" stroke-opacity="0.35"/>
  <text x="178" y="79" text-anchor="middle" fill="#FFB66E" font-family="Arial, Helvetica, sans-serif" font-size="14" font-weight="700" letter-spacing="0.18em">YOLOBOX.DEV</text>

  <g transform="translate(86.58000000000004 92) scale(0.86)">
    <rect width="1194" height="202" rx="30" fill="url(#badge-bg)"/>
    <rect x="1" y="1" width="1192" height="200" rx="29" fill="none" stroke="white" stroke-opacity="0.08"/>
    <ellipse cx="597" cy="101" rx="324" ry="90.9" fill="#FF8C00" fill-opacity="0.2"/>
    <rect x="62" y="52" width="18" height="18" rx="1" fill="#7A2F00"/><rect x="80" y="52" width="18" height="18" rx="1" fill="#7A2F00"/><rect x="112" y="52" width="4" height="18" rx="1" fill="#7A2F00"/><rect x="98" y="52" width="18" height="4" rx="1" fill="#7A2F00"/><rect x="170" y="52" width="18" height="18" rx="1" fill="#7A2F00"/><rect x="188" y="52" width="18" height="18" rx="1" fill="#7A2F00"/><rect x="220" y="52" width="4" height="18" rx="1" fill="#7A2F00"/><rect x="206" y="52" width="18" height="4" rx="1" fill="#7A2F00"/><rect x="242" y="52" width="18" height="18" rx="1" fill="#7A2F00"/><rect x="260" y="52" width="18" height="18" rx="1" fill="#7A2F00"/><rect x="278" y="52" width="18" height="18" rx="1" fill="#7A2F00"/><rect x="296" y="52" width="18" height="18" rx="1" fill="#7A2F00"/><rect x="314" y="52" width="18" height="18" rx="1" fill="#7A2F00"/><rect x="332" y="52" width="18" height="18" rx="1" fill="#7A2F00"/><rect x="364" y="52" width="4" height="18" rx="1" fill="#7A2F00"/><rect x="350" y="52" width="18" height="4" rx="1" fill="#7A2F00"/><rect x="386" y="52" width="18" height="18" rx="1" fill="#7A2F00"/><rect x="404" y="52" width="18" height="18" rx="1" fill="#7A2F00"/><rect x="436" y="52" width="4" height="18" rx="1" fill="#7A2F00"/><rect x="422" y="52" width="18" height="4" rx="1" fill="#7A2F00"/><rect x="548" y="52" width="18" height="18" rx="1" fill="#7A2F00"/><rect x="566" y="52" width="18" height="18" rx="1" fill="#7A2F00"/><rect x="584" y="52" width="18" height="18" rx="1" fill="#7A2F00"/><rect x="602" y="52" width="18" height="18" rx="1" fill="#7A2F00"/><rect x="620" y="52" width="18" height="18" rx="1" fill="#7A2F00"/><rect x="638" y="52" width="18" height="18" rx="1" fill="#7A2F00"/><rect x="670" y="52" width="4" height="18" rx="1" fill="#7A2F00"/><rect x="656" y="52" width="18" height="4" rx="1" fill="#7A2F00"/><rect x="692" y="52" width="18" height="18" rx="1" fill="#7A2F00"/><rect x="710" y="52" width="18" height="18" rx="1" fill="#7A2F00"/><rect x="728" y="52" width="18" height="18" rx="1" fill="#7A2F00"/><rect x="746" y="52" width="18" height="18" rx="1" fill="#7A2F00"/><rect x="764" y="52" width="18" height="18" rx="1" fill="#7A2F00"/><rect x="782" y="52" width="18" height="18" rx="1" fill="#7A2F00"/><rect x="814" y="52" width="4" height="18" rx="1" fill="#7A2F00"/><rect x="800" y="52" width="18" height="4" rx="1" fill="#7A2F00"/><rect x="854" y="52" width="18" height="18" rx="1" fill="#7A2F00"/><rect x="872" y="52" width="18" height="18" rx="1" fill="#7A2F00"/><rect x="890" y="52" width="18" height="18" rx="1" fill="#7A2F00"/><rect x="908" y="52" width="18" height="18" rx="1" fill="#7A2F00"/><rect x="926" y="52" width="18" height="18" rx="1" fill="#7A2F00"/><rect x="944" y="52" width="18" height="18" rx="1" fill="#7A2F00"/><rect x="976" y="52" width="4" height="18" rx="1" fill="#7A2F00"/><rect x="962" y="52" width="18" height="4" rx="1" fill="#7A2F00"/><rect x="998" y="52" width="18" height="18" rx="1" fill="#7A2F00"/><rect x="1016" y="52" width="18" height="18" rx="1" fill="#7A2F00"/><rect x="1048" y="52" width="4" height="18" rx="1" fill="#7A2F00"/><rect x="1034" y="52" width="18" height="4" rx="1" fill="#7A2F00"/><rect x="1088" y="52" width="18" height="18" rx="1" fill="#7A2F00"/><rect x="1106" y="52" width="18" height="18" rx="1" fill="#7A2F00"/><rect x="1138" y="52" width="4" height="18" rx="1" fill="#7A2F00"/><rect x="1124" y="52" width="18" height="4" rx="1" fill="#7A2F00"/><rect x="62" y="70" width="4" height="18" rx="1" fill="#7A2F00"/><rect x="62" y="84" width="18" height="4" rx="1" fill="#7A2F00"/><rect x="80" y="70" width="18" height="18" rx="1" fill="#7A2F00"/><rect x="98" y="70" width="18" height="18" rx="1" fill="#7A2F00"/><rect x="130" y="70" width="4" height="18" rx="1" fill="#7A2F00"/><rect x="116" y="70" width="18" height="4" rx="1" fill="#7A2F00"/><rect x="152" y="70" width="18" height="18" rx="1" fill="#7A2F00"/><rect x="170" y="70" width="18" height="18" rx="1" fill="#7A2F00"/><rect x="188" y="70" width="4" height="18" rx="1" fill="#7A2F00"/><rect x="188" y="70" width="18" height="4" rx="1" fill="#7A2F00"/><rect x="220" y="70" width="4" height="18" rx="1" fill="#7A2F00"/><rect x="206" y="84" width="18" height="4" rx="1" fill="#7A2F00"/><rect x="224" y="70" width="18" height="18" rx="1" fill="#7A2F00"/><rect x="242" y="70" width="18" height="18" rx="1" fill="#7A2F00"/><rect x="260" y="70" width="4" height="18" rx="1" fill="#7A2F00"/><rect x="260" y="70" width="18" height="4" rx="1" fill="#7A2F00"/><rect x="278" y="84" width="18" height="4" rx="1" fill="#7A2F00"/><rect x="296" y="84" width="18" height="4" rx="1" fill="#7A2F00"/><rect x="314" y="84" width="18" height="4" rx="1" fill="#7A2F00"/><rect x="332" y="70" width="18" height="18" rx="1" fill="#7A2F00"/><rect x="350" y="70" width="18" height="18" rx="1" fill="#7A2F00"/><rect x="382" y="70" width="4" height="18" rx="1" fill="#7A2F00"/><rect x="368" y="70" width="18" height="4" rx="1" fill="#7A2F00"/><rect x="386" y="70" width="18" height="18" rx="1" fill="#7A2F00"/><rect x="404" y="70" width="18" height="18" rx="1" fill="#7A2F00"/><rect x="422" y="70" width="4" height="18" rx="1" fill="#7A2F00"/><rect x="530" y="70" width="18" height="18" rx="1" fill="#7A2F00"/><rect x="548" y="70" width="18" height="18" rx="1" fill="#7A2F00"/><rect x="566" y="70" width="4" height="18" rx="1" fill="#7A2F00"/><rect x="566" y="70" width="18" height="4" rx="1" fill="#7A2F00"/><rect x="584" y="84" width="18" height="4" rx="1" fill="#7A2F00"/><rect x="602" y="84" width="18" height="4" rx="1" fill="#7A2F00"/><rect x="620" y="84" width="18" height="4" rx="1" fill="#7A2F00"/><rect x="638" y="70" width="18" height="18" rx="1" fill="#7A2F00"/><rect x="656" y="70" width="18" height="18" rx="1" fill="#7A2F00"/><rect x="688" y="70" width="4" height="18" rx="1" fill="#7A2F00"/><rect x="674" y="70" width="18" height="4" rx="1" fill="#7A2F00"/><rect x="692" y="70" width="18" height="18" rx="1" fill="#7A2F00"/><rect x="710" y="70" width="18" height="18" rx="1" fill="#7A2F00"/><rect x="728" y="70" width="4" height="18" rx="1" fill="#7A2F00"/><rect x="728" y="70" width="18" height="4" rx="1" fill="#7A2F00"/><rect x="746" y="84" width="18" height="4" rx="1" fill="#7A2F00"/><rect x="764" y="84" width="18" height="4" rx="1" fill="#7A2F00"/><rect x="782" y="70" width="18" height="18" rx="1" fill="#7A2F00"/><rect x="800" y="70" width="18" height="18" rx="1" fill="#7A2F00"/><rect x="832" y="70" width="4" height="18" rx="1" fill="#7A2F00"/><rect x="818" y="70" width="18" height="4" rx="1" fill="#7A2F00"/><rect x="836" y="70" width="18" height="18" rx="1" fill="#7A2F00"/><rect x="854" y="70" width="18" height="18" rx="1" fill="#7A2F00"/><rect x="872" y="70" width="4" height="18" rx="1" fill="#7A2F00"/><rect x="872" y="70" width="18" height="4" rx="1" fill="#7A2F00"/><rect x="890" y="84" width="18" height="4" rx="1" fill="#7A2F00"/><rect x="908" y="84" width="18" height="4" rx="1" fill="#7A2F00"/><rect x="926" y="84" width="18" height="4" rx="1" fill="#7A2F00"/><rect x="944" y="70" width="18" height="18" rx="1" fill="#7A2F00"/><rect x="962" y="70" width="18" height="18" rx="1" fill="#7A2F00"/><rect x="994" y="70" width="4" height="18" rx="1" fill="#7A2F00"/><rect x="980" y="70" width="18" height="4" rx="1" fill="#7A2F00"/><rect x="998" y="70" width="4" height="18" rx="1" fill="#7A2F00"/><rect x="998" y="84" width="18" height="4" rx="1" fill="#7A2F00"/><rect x="1016" y="70" width="18" height="18" rx="1" fill="#7A2F00"/><rect x="1034" y="70" width="18" height="18" rx="1" fill="#7A2F00"/><rect x="1066" y="70" width="4" height="18" rx="1" fill="#7A2F00"/><rect x="1052" y="70" width="18" height="4" rx="1" fill="#7A2F00"/><rect x="1070" y="70" width="18" height="18" rx="1" fill="#7A2F00"/><rect x="1088" y="70" width="18" height="18" rx="1" fill="#7A2F00"/><rect x="1106" y="70" width="4" height="18" rx="1" fill="#7A2F00"/><rect x="1106" y="70" width="18" height="4" rx="1" fill="#7A2F00"/><rect x="1138" y="70" width="4" height="18" rx="1" fill="#7A2F00"/><rect x="1124" y="84" width="18" height="4" rx="1" fill="#7A2F00"/><rect x="80" y="88" width="4" height="18" rx="1" fill="#7A2F00"/><rect x="80" y="102" width="18" height="4" rx="1" fill="#7A2F00"/><rect x="98" y="88" width="18" height="18" rx="1" fill="#7A2F00"/><rect x="116" y="88" width="18" height="18" rx="1" fill="#7A2F00"/><rect x="134" y="88" width="18" height="18" rx="1" fill="#7A2F00"/><rect x="152" y="88" width="18" height="18" rx="1" fill="#7A2F00"/><rect x="170" y="88" width="4" height="18" rx="1" fill="#7A2F00"/><rect x="170" y="88" width="18" height="4" rx="1" fill="#7A2F00"/><rect x="202" y="88" width="4" height="18" rx="1" fill="#7A2F00"/><rect x="188" y="102" width="18" height="4" rx="1" fill="#7A2F00"/><rect x="224" y="88" width="18" height="18" rx="1" fill="#7A2F00"/><rect x="242" y="88" width="18" height="18" rx="1" fill="#7A2F00"/><rect x="260" y="88" width="4" height="18" rx="1" fill="#7A2F00"/><rect x="332" y="88" width="18" height="18" rx="1" fill="#7A2F00"/><rect x="350" y="88" width="18" height="18" rx="1" fill="#7A2F00"/><rect x="368" y="88" width="4" height="18" rx="1" fill="#7A2F00"/><rect x="386" y="88" width="18" height="18" rx="1" fill="#7A2F00"/><rect x="404" y="88" width="18" height="18" rx="1" fill="#7A2F00"/><rect x="422" y="88" width="4" height="18" rx="1" fill="#7A2F00"/><rect x="530" y="88" width="18" height="18" rx="1" fill="#7A2F00"/><rect x="548" y="88" width="18" height="18" rx="1" fill="#7A2F00"/><rect x="566" y="88" width="4" height="18" rx="1" fill="#7A2F00"/><rect x="638" y="88" width="18" height="18" rx="1" fill="#7A2F00"/><rect x="656" y="88" width="18" height="18" rx="1" fill="#7A2F00"/><rect x="674" y="88" width="4" height="18" rx="1" fill="#7A2F00"/><rect x="692" y="88" width="18" height="18" rx="1" fill="#7A2F00"/><rect x="710" y="88" width="18" height="18" rx="1" fill="#7A2F00"/><rect x="728" y="88" width="18" height="18" rx="1" fill="#7A2F00"/><rect x="746" y="88" width="18" height="18" rx="1" fill="#7A2F00"/><rect x="764" y="88" width="18" height="18" rx="1" fill="#7A2F00"/><rect x="782" y="88" width="18" height="18" rx="1" fill="#7A2F00"/><rect x="800" y="88" width="4" height="18" rx="1" fill="#7A2F00"/><rect x="800" y="88" width="18" height="4" rx="1" fill="#7A2F00"/><rect x="832" y="88" width="4" height="18" rx="1" fill="#7A2F00"/><rect x="818" y="102" width="18" height="4" rx="1" fill="#7A2F00"/><rect x="836" y="88" width="18" height="18" rx="1" fill="#7A2F00"/><rect x="854" y="88" width="18" height="18" rx="1" fill="#7A2F00"/><rect x="872" y="88" width="4" height="18" rx="1" fill="#7A2F00"/><rect x="944" y="88" width="18" height="18" rx="1" fill="#7A2F00"/><rect x="962" y="88" width="18" height="18" rx="1" fill="#7A2F00"/><rect x="980" y="88" width="4" height="18" rx="1" fill="#7A2F00"/><rect x="1016" y="88" width="4" height="18" rx="1" fill="#7A2F00"/><rect x="1016" y="102" width="18" height="4" rx="1" fill="#7A2F00"/><rect x="1034" y="88" width="18" height="18" rx="1" fill="#7A2F00"/><rect x="1052" y="88" width="18" height="18" rx="1" fill="#7A2F00"/><rect x="1070" y="88" width="18" height="18" rx="1" fill="#7A2F00"/><rect x="1088" y="88" width="4" height="18" rx="1" fill="#7A2F00"/><rect x="1088" y="88" width="18" height="4" rx="1" fill="#7A2F00"/><rect x="1120" y="88" width="4" height="18" rx="1" fill="#7A2F00"/><rect x="1106" y="102" width="18" height="4" rx="1" fill="#7A2F00"/><rect x="98" y="106" width="4" height="18" rx="1" fill="#7A2F00"/><rect x="98" y="120" width="18" height="4" rx="1" fill="#7A2F00"/><rect x="116" y="106" width="18" height="18" rx="1" fill="#7A2F00"/><rect x="134" y="106" width="18" height="18" rx="1" fill="#7A2F00"/><rect x="152" y="106" width="4" height="18" rx="1" fill="#7A2F00"/><rect x="152" y="106" width="18" height="4" rx="1" fill="#7A2F00"/><rect x="184" y="106" width="4" height="18" rx="1" fill="#7A2F00"/><rect x="170" y="120" width="18" height="4" rx="1" fill="#7A2F00"/><rect x="224" y="106" width="18" height="18" rx="1" fill="#7A2F00"/><rect x="242" y="106" width="18" height="18" rx="1" fill="#7A2F00"/><rect x="260" y="106" width="4" height="18" rx="1" fill="#7A2F00"/><rect x="332" y="106" width="18" height="18" rx="1" fill="#7A2F00"/><rect x="350" y="106" width="18" height="18" rx="1" fill="#7A2F00"/><rect x="368" y="106" width="4" height="18" rx="1" fill="#7A2F00"/><rect x="386" y="106" width="18" height="18" rx="1" fill="#7A2F00"/><rect x="404" y="106" width="18" height="18" rx="1" fill="#7A2F00"/><rect x="422" y="106" width="4" height="18" rx="1" fill="#7A2F00"/><rect x="530" y="106" width="18" height="18" rx="1" fill="#7A2F00"/><rect x="548" y="106" width="18" height="18" rx="1" fill="#7A2F00"/><rect x="566" y="106" width="4" height="18" rx="1" fill="#7A2F00"/><rect x="638" y="106" width="18" height="18" rx="1" fill="#7A2F00"/><rect x="656" y="106" width="18" height="18" rx="1" fill="#7A2F00"/><rect x="674" y="106" width="4" height="18" rx="1" fill="#7A2F00"/><rect x="692" y="106" width="18" height="18" rx="1" fill="#7A2F00"/><rect x="710" y="106" width="18" height="18" rx="1" fill="#7A2F00"/><rect x="728" y="106" width="4" height="18" rx="1" fill="#7A2F00"/><rect x="728" y="106" width="18" height="4" rx="1" fill="#7A2F00"/><rect x="746" y="120" width="18" height="4" rx="1" fill="#7A2F00"/><rect x="764" y="120" width="18" height="4" rx="1" fill="#7A2F00"/><rect x="782" y="106" width="18" height="18" rx="1" fill="#7A2F00"/><rect x="800" y="106" width="18" height="18" rx="1" fill="#7A2F00"/><rect x="832" y="106" width="4" height="18" rx="1" fill="#7A2F00"/><rect x="818" y="106" width="18" height="4" rx="1" fill="#7A2F00"/><rect x="836" y="106" width="18" height="18" rx="1" fill="#7A2F00"/><rect x="854" y="106" width="18" height="18" rx="1" fill="#7A2F00"/><rect x="872" y="106" width="4" height="18" rx="1" fill="#7A2F00"/><rect x="944" y="106" width="18" height="18" rx="1" fill="#7A2F00"/><rect x="962" y="106" width="18" height="18" rx="1" fill="#7A2F00"/><rect x="980" y="106" width="4" height="18" rx="1" fill="#7A2F00"/><rect x="1016" y="106" width="18" height="18" rx="1" fill="#7A2F00"/><rect x="1034" y="106" width="18" height="18" rx="1" fill="#7A2F00"/><rect x="1052" y="106" width="4" height="18" rx="1" fill="#7A2F00"/><rect x="1052" y="106" width="18" height="4" rx="1" fill="#7A2F00"/><rect x="1070" y="106" width="18" height="18" rx="1" fill="#7A2F00"/><rect x="1088" y="106" width="18" height="18" rx="1" fill="#7A2F00"/><rect x="1120" y="106" width="4" height="18" rx="1" fill="#7A2F00"/><rect x="1106" y="106" width="18" height="4" rx="1" fill="#7A2F00"/><rect x="116" y="124" width="18" height="18" rx="1" fill="#7A2F00"/><rect x="134" y="124" width="18" height="18" rx="1" fill="#7A2F00"/><rect x="152" y="124" width="4" height="18" rx="1" fill="#7A2F00"/><rect x="224" y="124" width="4" height="18" rx="1" fill="#7A2F00"/><rect x="224" y="138" width="18" height="4" rx="1" fill="#7A2F00"/><rect x="242" y="124" width="18" height="18" rx="1" fill="#7A2F00"/><rect x="260" y="124" width="18" height="18" rx="1" fill="#7A2F00"/><rect x="278" y="124" width="18" height="18" rx="1" fill="#7A2F00"/><rect x="296" y="124" width="18" height="18" rx="1" fill="#7A2F00"/><rect x="314" y="124" width="18" height="18" rx="1" fill="#7A2F00"/><rect x="332" y="124" width="18" height="18" rx="1" fill="#7A2F00"/><rect x="350" y="124" width="4" height="18" rx="1" fill="#7A2F00"/><rect x="350" y="124" width="18" height="4" rx="1" fill="#7A2F00"/><rect x="382" y="124" width="4" height="18" rx="1" fill="#7A2F00"/><rect x="368" y="138" width="18" height="4" rx="1" fill="#7A2F00"/><rect x="386" y="124" width="18" height="18" rx="1" fill="#7A2F00"/><rect x="404" y="124" width="18" height="18" rx="1" fill="#7A2F00"/><rect x="422" y="124" width="18" height="18" rx="1" fill="#7A2F00"/><rect x="440" y="124" width="18" height="18" rx="1" fill="#7A2F00"/><rect x="458" y="124" width="18" height="18" rx="1" fill="#7A2F00"/><rect x="476" y="124" width="18" height="18" rx="1" fill="#7A2F00"/><rect x="494" y="124" width="18" height="18" rx="1" fill="#7A2F00"/><rect x="526" y="124" width="4" height="18" rx="1" fill="#7A2F00"/><rect x="512" y="124" width="18" height="4" rx="1" fill="#7A2F00"/><rect x="530" y="124" width="4" height="18" rx="1" fill="#7A2F00"/><rect x="530" y="138" width="18" height="4" rx="1" fill="#7A2F00"/><rect x="548" y="124" width="18" height="18" rx="1" fill="#7A2F00"/><rect x="566" y="124" width="18" height="18" rx="1" fill="#7A2F00"/><rect x="584" y="124" width="18" height="18" rx="1" fill="#7A2F00"/><rect x="602" y="124" width="18" height="18" rx="1" fill="#7A2F00"/><rect x="620" y="124" width="18" height="18" rx="1" fill="#7A2F00"/><rect x="638" y="124" width="18" height="18" rx="1" fill="#7A2F00"/><rect x="656" y="124" width="4" height="18" rx="1" fill="#7A2F00"/><rect x="656" y="124" width="18" height="4" rx="1" fill="#7A2F00"/><rect x="688" y="124" width="4" height="18" rx="1" fill="#7A2F00"/><rect x="674" y="138" width="18" height="4" rx="1" fill="#7A2F00"/><rect x="692" y="124" width="18" height="18" rx="1" fill="#7A2F00"/><rect x="710" y="124" width="18" height="18" rx="1" fill="#7A2F00"/><rect x="728" y="124" width="18" height="18" rx="1" fill="#7A2F00"/><rect x="746" y="124" width="18" height="18" rx="1" fill="#7A2F00"/><rect x="764" y="124" width="18" height="18" rx="1" fill="#7A2F00"/><rect x="782" y="124" width="18" height="18" rx="1" fill="#7A2F00"/><rect x="800" y="124" width="4" height="18" rx="1" fill="#7A2F00"/><rect x="800" y="124" width="18" height="4" rx="1" fill="#7A2F00"/><rect x="832" y="124" width="4" height="18" rx="1" fill="#7A2F00"/><rect x="818" y="138" width="18" height="4" rx="1" fill="#7A2F00"/><rect x="836" y="124" width="4" height="18" rx="1" fill="#7A2F00"/><rect x="836" y="138" width="18" height="4" rx="1" fill="#7A2F00"/><rect x="854" y="124" width="18" height="18" rx="1" fill="#7A2F00"/><rect x="872" y="124" width="18" height="18" rx="1" fill="#7A2F00"/><rect x="890" y="124" width="18" height="18" rx="1" fill="#7A2F00"/><rect x="908" y="124" width="18" height="18" rx="1" fill="#7A2F00"/><rect x="926" y="124" width="18" height="18" rx="1" fill="#7A2F00"/><rect x="944" y="124" width="18" height="18" rx="1" fill="#7A2F00"/><rect x="962" y="124" width="4" height="18" rx="1" fill="#7A2F00"/><rect x="962" y="124" width="18" height="4" rx="1" fill="#7A2F00"/><rect x="994" y="124" width="4" height="18" rx="1" fill="#7A2F00"/><rect x="980" y="138" width="18" height="4" rx="1" fill="#7A2F00"/><rect x="998" y="124" width="18" height="18" rx="1" fill="#7A2F00"/><rect x="1016" y="124" width="18" height="18" rx="1" fill="#7A2F00"/><rect x="1034" y="124" width="4" height="18" rx="1" fill="#7A2F00"/><rect x="1034" y="124" width="18" height="4" rx="1" fill="#7A2F00"/><rect x="1066" y="124" width="4" height="18" rx="1" fill="#7A2F00"/><rect x="1052" y="138" width="18" height="4" rx="1" fill="#7A2F00"/><rect x="1088" y="124" width="18" height="18" rx="1" fill="#7A2F00"/><rect x="1106" y="124" width="18" height="18" rx="1" fill="#7A2F00"/><rect x="1138" y="124" width="4" height="18" rx="1" fill="#7A2F00"/><rect x="1124" y="124" width="18" height="4" rx="1" fill="#7A2F00"/><rect x="116" y="142" width="4" height="18" rx="1" fill="#7A2F00"/><rect x="116" y="156" width="18" height="4" rx="1" fill="#7A2F00"/><rect x="134" y="156" width="18" height="4" rx="1" fill="#7A2F00"/><rect x="166" y="142" width="4" height="18" rx="1" fill="#7A2F00"/><rect x="152" y="156" width="18" height="4" rx="1" fill="#7A2F00"/><rect x="242" y="142" width="4" height="18" rx="1" fill="#7A2F00"/><rect x="242" y="156" width="18" height="4" rx="1" fill="#7A2F00"/><rect x="260" y="156" width="18" height="4" rx="1" fill="#7A2F00"/><rect x="278" y="156" width="18" height="4" rx="1" fill="#7A2F00"/><rect x="296" y="156" width="18" height="4" rx="1" fill="#7A2F00"/><rect x="314" y="156" width="18" height="4" rx="1" fill="#7A2F00"/><rect x="332" y="156" width="18" height="4" rx="1" fill="#7A2F00"/><rect x="364" y="142" width="4" height="18" rx="1" fill="#7A2F00"/><rect x="350" y="156" width="18" height="4" rx="1" fill="#7A2F00"/><rect x="386" y="142" width="4" height="18" rx="1" fill="#7A2F00"/><rect x="386" y="156" width="18" height="4" rx="1" fill="#7A2F00"/><rect x="404" y="156" width="18" height="4" rx="1" fill="#7A2F00"/><rect x="422" y="156" width="18" height="4" rx="1" fill="#7A2F00"/><rect x="440" y="156" width="18" height="4" rx="1" fill="#7A2F00"/><rect x="458" y="156" width="18" height="4" rx="1" fill="#7A2F00"/><rect x="476" y="156" width="18" height="4" rx="1" fill="#7A2F00"/><rect x="494" y="156" width="18" height="4" rx="1" fill="#7A2F00"/><rect x="526" y="142" width="4" height="18" rx="1" fill="#7A2F00"/><rect x="512" y="156" width="18" height="4" rx="1" fill="#7A2F00"/><rect x="548" y="142" width="4" height="18" rx="1" fill="#7A2F00"/><rect x="548" y="156" width="18" height="4" rx="1" fill="#7A2F00"/><rect x="566" y="156" width="18" height="4" rx="1" fill="#7A2F00"/><rect x="584" y="156" width="18" height="4" rx="1" fill="#7A2F00"/><rect x="602" y="156" width="18" height="4" rx="1" fill="#7A2F00"/><rect x="620" y="156" width="18" height="4" rx="1" fill="#7A2F00"/><rect x="638" y="156" width="18" height="4" rx="1" fill="#7A2F00"/><rect x="670" y="142" width="4" height="18" rx="1" fill="#7A2F00"/><rect x="656" y="156" width="18" height="4" rx="1" fill="#7A2F00"/><rect x="692" y="142" width="4" height="18" rx="1" fill="#7A2F00"/><rect x="692" y="156" width="18" height="4" rx="1" fill="#7A2F00"/><rect x="710" y="156" width="18" height="4" rx="1" fill="#7A2F00"/><rect x="728" y="156" width="18" height="4" rx="1" fill="#7A2F00"/><rect x="746" y="156" width="18" height="4" rx="1" fill="#7A2F00"/><rect x="764" y="156" width="18" height="4" rx="1" fill="#7A2F00"/><rect x="782" y="156" width="18" height="4" rx="1" fill="#7A2F00"/><rect x="814" y="142" width="4" height="18" rx="1" fill="#7A2F00"/><rect x="800" y="156" width="18" height="4" rx="1" fill="#7A2F00"/><rect x="854" y="142" width="4" height="18" rx="1" fill="#7A2F00"/><rect x="854" y="156" width="18" height="4" rx="1" fill="#7A2F00"/><rect x="872" y="156" width="18" height="4" rx="1" fill="#7A2F00"/><rect x="890" y="156" width="18" height="4" rx="1" fill="#7A2F00"/><rect x="908" y="156" width="18" height="4" rx="1" fill="#7A2F00"/><rect x="926" y="156" width="18" height="4" rx="1" fill="#7A2F00"/><rect x="944" y="156" width="18" height="4" rx="1" fill="#7A2F00"/><rect x="976" y="142" width="4" height="18" rx="1" fill="#7A2F00"/><rect x="962" y="156" width="18" height="4" rx="1" fill="#7A2F00"/><rect x="998" y="142" width="4" height="18" rx="1" fill="#7A2F00"/><rect x="998" y="156" width="18" height="4" rx="1" fill="#7A2F00"/><rect x="1016" y="156" width="18" height="4" rx="1" fill="#7A2F00"/><rect x="1048" y="142" width="4" height="18" rx="1" fill="#7A2F00"/><rect x="1034" y="156" width="18" height="4" rx="1" fill="#7A2F00"/><rect x="1088" y="142" width="4" height="18" rx="1" fill="#7A2F00"/><rect x="1088" y="156" width="18" height="4" rx="1" fill="#7A2F00"/><rect x="1106" y="156" width="18" height="4" rx="1" fill="#7A2F00"/><rect x="1138" y="142" width="4" height="18" rx="1" fill="#7A2F00"/><rect x="1124" y="156" width="18" height="4" rx="1" fill="#7A2F00"/>
    <rect x="52" y="42" width="18" height="18" rx="1" fill="#FF8C00"/><rect x="70" y="42" width="18" height="18" rx="1" fill="#FF8C00"/><rect x="102" y="42" width="4" height="18" rx="1" fill="#FF8C00"/><rect x="88" y="42" width="18" height="4" rx="1" fill="#FF8C00"/><rect x="160" y="42" width="18" height="18" rx="1" fill="#FF8C00"/><rect x="178" y="42" width="18" height="18" rx="1" fill="#FF8C00"/><rect x="210" y="42" width="4" height="18" rx="1" fill="#FF8C00"/><rect x="196" y="42" width="18" height="4" rx="1" fill="#FF8C00"/><rect x="232" y="42" width="18" height="18" rx="1" fill="#FF8C00"/><rect x="250" y="42" width="18" height="18" rx="1" fill="#FF8C00"/><rect x="268" y="42" width="18" height="18" rx="1" fill="#FF8C00"/><rect x="286" y="42" width="18" height="18" rx="1" fill="#FF8C00"/><rect x="304" y="42" width="18" height="18" rx="1" fill="#FF8C00"/><rect x="322" y="42" width="18" height="18" rx="1" fill="#FF8C00"/><rect x="354" y="42" width="4" height="18" rx="1" fill="#FF8C00"/><rect x="340" y="42" width="18" height="4" rx="1" fill="#FF8C00"/><rect x="376" y="42" width="18" height="18" rx="1" fill="#FF8C00"/><rect x="394" y="42" width="18" height="18" rx="1" fill="#FF8C00"/><rect x="426" y="42" width="4" height="18" rx="1" fill="#FF8C00"/><rect x="412" y="42" width="18" height="4" rx="1" fill="#FF8C00"/><rect x="538" y="42" width="18" height="18" rx="1" fill="#FF8C00"/><rect x="556" y="42" width="18" height="18" rx="1" fill="#FF8C00"/><rect x="574" y="42" width="18" height="18" rx="1" fill="#FF8C00"/><rect x="592" y="42" width="18" height="18" rx="1" fill="#FF8C00"/><rect x="610" y="42" width="18" height="18" rx="1" fill="#FF8C00"/><rect x="628" y="42" width="18" height="18" rx="1" fill="#FF8C00"/><rect x="660" y="42" width="4" height="18" rx="1" fill="#FF8C00"/><rect x="646" y="42" width="18" height="4" rx="1" fill="#FF8C00"/><rect x="682" y="42" width="18" height="18" rx="1" fill="#FF8C00"/><rect x="700" y="42" width="18" height="18" rx="1" fill="#FF8C00"/><rect x="718" y="42" width="18" height="18" rx="1" fill="#FF8C00"/><rect x="736" y="42" width="18" height="18" rx="1" fill="#FF8C00"/><rect x="754" y="42" width="18" height="18" rx="1" fill="#FF8C00"/><rect x="772" y="42" width="18" height="18" rx="1" fill="#FF8C00"/><rect x="804" y="42" width="4" height="18" rx="1" fill="#FF8C00"/><rect x="790" y="42" width="18" height="4" rx="1" fill="#FF8C00"/><rect x="844" y="42" width="18" height="18" rx="1" fill="#FF8C00"/><rect x="862" y="42" width="18" height="18" rx="1" fill="#FF8C00"/><rect x="880" y="42" width="18" height="18" rx="1" fill="#FF8C00"/><rect x="898" y="42" width="18" height="18" rx="1" fill="#FF8C00"/><rect x="916" y="42" width="18" height="18" rx="1" fill="#FF8C00"/><rect x="934" y="42" width="18" height="18" rx="1" fill="#FF8C00"/><rect x="966" y="42" width="4" height="18" rx="1" fill="#FF8C00"/><rect x="952" y="42" width="18" height="4" rx="1" fill="#FF8C00"/><rect x="988" y="42" width="18" height="18" rx="1" fill="#FF8C00"/><rect x="1006" y="42" width="18" height="18" rx="1" fill="#FF8C00"/><rect x="1038" y="42" width="4" height="18" rx="1" fill="#FF8C00"/><rect x="1024" y="42" width="18" height="4" rx="1" fill="#FF8C00"/><rect x="1078" y="42" width="18" height="18" rx="1" fill="#FF8C00"/><rect x="1096" y="42" width="18" height="18" rx="1" fill="#FF8C00"/><rect x="1128" y="42" width="4" height="18" rx="1" fill="#FF8C00"/><rect x="1114" y="42" width="18" height="4" rx="1" fill="#FF8C00"/><rect x="52" y="60" width="4" height="18" rx="1" fill="#FF8C00"/><rect x="52" y="74" width="18" height="4" rx="1" fill="#FF8C00"/><rect x="70" y="60" width="18" height="18" rx="1" fill="#FF8C00"/><rect x="88" y="60" width="18" height="18" rx="1" fill="#FF8C00"/><rect x="120" y="60" width="4" height="18" rx="1" fill="#FF8C00"/><rect x="106" y="60" width="18" height="4" rx="1" fill="#FF8C00"/><rect x="142" y="60" width="18" height="18" rx="1" fill="#FF8C00"/><rect x="160" y="60" width="18" height="18" rx="1" fill="#FF8C00"/><rect x="178" y="60" width="4" height="18" rx="1" fill="#FF8C00"/><rect x="178" y="60" width="18" height="4" rx="1" fill="#FF8C00"/><rect x="210" y="60" width="4" height="18" rx="1" fill="#FF8C00"/><rect x="196" y="74" width="18" height="4" rx="1" fill="#FF8C00"/><rect x="214" y="60" width="18" height="18" rx="1" fill="#FF8C00"/><rect x="232" y="60" width="18" height="18" rx="1" fill="#FF8C00"/><rect x="250" y="60" width="4" height="18" rx="1" fill="#FF8C00"/><rect x="250" y="60" width="18" height="4" rx="1" fill="#FF8C00"/><rect x="268" y="74" width="18" height="4" rx="1" fill="#FF8C00"/><rect x="286" y="74" width="18" height="4" rx="1" fill="#FF8C00"/><rect x="304" y="74" width="18" height="4" rx="1" fill="#FF8C00"/><rect x="322" y="60" width="18" height="18" rx="1" fill="#FF8C00"/><rect x="340" y="60" width="18" height="18" rx="1" fill="#FF8C00"/><rect x="372" y="60" width="4" height="18" rx="1" fill="#FF8C00"/><rect x="358" y="60" width="18" height="4" rx="1" fill="#FF8C00"/><rect x="376" y="60" width="18" height="18" rx="1" fill="#FF8C00"/><rect x="394" y="60" width="18" height="18" rx="1" fill="#FF8C00"/><rect x="412" y="60" width="4" height="18" rx="1" fill="#FF8C00"/><rect x="520" y="60" width="18" height="18" rx="1" fill="#FF8C00"/><rect x="538" y="60" width="18" height="18" rx="1" fill="#FF8C00"/><rect x="556" y="60" width="4" height="18" rx="1" fill="#FF8C00"/><rect x="556" y="60" width="18" height="4" rx="1" fill="#FF8C00"/><rect x="574" y="74" width="18" height="4" rx="1" fill="#FF8C00"/><rect x="592" y="74" width="18" height="4" rx="1" fill="#FF8C00"/><rect x="610" y="74" width="18" height="4" rx="1" fill="#FF8C00"/><rect x="628" y="60" width="18" height="18" rx="1" fill="#FF8C00"/><rect x="646" y="60" width="18" height="18" rx="1" fill="#FF8C00"/><rect x="678" y="60" width="4" height="18" rx="1" fill="#FF8C00"/><rect x="664" y="60" width="18" height="4" rx="1" fill="#FF8C00"/><rect x="682" y="60" width="18" height="18" rx="1" fill="#FF8C00"/><rect x="700" y="60" width="18" height="18" rx="1" fill="#FF8C00"/><rect x="718" y="60" width="4" height="18" rx="1" fill="#FF8C00"/><rect x="718" y="60" width="18" height="4" rx="1" fill="#FF8C00"/><rect x="736" y="74" width="18" height="4" rx="1" fill="#FF8C00"/><rect x="754" y="74" width="18" height="4" rx="1" fill="#FF8C00"/><rect x="772" y="60" width="18" height="18" rx="1" fill="#FF8C00"/><rect x="790" y="60" width="18" height="18" rx="1" fill="#FF8C00"/><rect x="822" y="60" width="4" height="18" rx="1" fill="#FF8C00"/><rect x="808" y="60" width="18" height="4" rx="1" fill="#FF8C00"/><rect x="826" y="60" width="18" height="18" rx="1" fill="#FF8C00"/><rect x="844" y="60" width="18" height="18" rx="1" fill="#FF8C00"/><rect x="862" y="60" width="4" height="18" rx="1" fill="#FF8C00"/><rect x="862" y="60" width="18" height="4" rx="1" fill="#FF8C00"/><rect x="880" y="74" width="18" height="4" rx="1" fill="#FF8C00"/><rect x="898" y="74" width="18" height="4" rx="1" fill="#FF8C00"/><rect x="916" y="74" width="18" height="4" rx="1" fill="#FF8C00"/><rect x="934" y="60" width="18" height="18" rx="1" fill="#FF8C00"/><rect x="952" y="60" width="18" height="18" rx="1" fill="#FF8C00"/><rect x="984" y="60" width="4" height="18" rx="1" fill="#FF8C00"/><rect x="970" y="60" width="18" height="4" rx="1" fill="#FF8C00"/><rect x="988" y="60" width="4" height="18" rx="1" fill="#FF8C00"/><rect x="988" y="74" width="18" height="4" rx="1" fill="#FF8C00"/><rect x="1006" y="60" width="18" height="18" rx="1" fill="#FF8C00"/><rect x="1024" y="60" width="18" height="18" rx="1" fill="#FF8C00"/><rect x="1056" y="60" width="4" height="18" rx="1" fill="#FF8C00"/><rect x="1042" y="60" width="18" height="4" rx="1" fill="#FF8C00"/><rect x="1060" y="60" width="18" height="18" rx="1" fill="#FF8C00"/><rect x="1078" y="60" width="18" height="18" rx="1" fill="#FF8C00"/><rect x="1096" y="60" width="4" height="18" rx="1" fill="#FF8C00"/><rect x="1096" y="60" width="18" height="4" rx="1" fill="#FF8C00"/><rect x="1128" y="60" width="4" height="18" rx="1" fill="#FF8C00"/><rect x="1114" y="74" width="18" height="4" rx="1" fill="#FF8C00"/><rect x="70" y="78" width="4" height="18" rx="1" fill="#FF8C00"/><rect x="70" y="92" width="18" height="4" rx="1" fill="#FF8C00"/><rect x="88" y="78" width="18" height="18" rx="1" fill="#FF8C00"/><rect x="106" y="78" width="18" height="18" rx="1" fill="#FF8C00"/><rect x="124" y="78" width="18" height="18" rx="1" fill="#FF8C00"/><rect x="142" y="78" width="18" height="18" rx="1" fill="#FF8C00"/><rect x="160" y="78" width="4" height="18" rx="1" fill="#FF8C00"/><rect x="160" y="78" width="18" height="4" rx="1" fill="#FF8C00"/><rect x="192" y="78" width="4" height="18" rx="1" fill="#FF8C00"/><rect x="178" y="92" width="18" height="4" rx="1" fill="#FF8C00"/><rect x="214" y="78" width="18" height="18" rx="1" fill="#FF8C00"/><rect x="232" y="78" width="18" height="18" rx="1" fill="#FF8C00"/><rect x="250" y="78" width="4" height="18" rx="1" fill="#FF8C00"/><rect x="322" y="78" width="18" height="18" rx="1" fill="#FF8C00"/><rect x="340" y="78" width="18" height="18" rx="1" fill="#FF8C00"/><rect x="358" y="78" width="4" height="18" rx="1" fill="#FF8C00"/><rect x="376" y="78" width="18" height="18" rx="1" fill="#FF8C00"/><rect x="394" y="78" width="18" height="18" rx="1" fill="#FF8C00"/><rect x="412" y="78" width="4" height="18" rx="1" fill="#FF8C00"/><rect x="520" y="78" width="18" height="18" rx="1" fill="#FF8C00"/><rect x="538" y="78" width="18" height="18" rx="1" fill="#FF8C00"/><rect x="556" y="78" width="4" height="18" rx="1" fill="#FF8C00"/><rect x="628" y="78" width="18" height="18" rx="1" fill="#FF8C00"/><rect x="646" y="78" width="18" height="18" rx="1" fill="#FF8C00"/><rect x="664" y="78" width="4" height="18" rx="1" fill="#FF8C00"/><rect x="682" y="78" width="18" height="18" rx="1" fill="#FF8C00"/><rect x="700" y="78" width="18" height="18" rx="1" fill="#FF8C00"/><rect x="718" y="78" width="18" height="18" rx="1" fill="#FF8C00"/><rect x="736" y="78" width="18" height="18" rx="1" fill="#FF8C00"/><rect x="754" y="78" width="18" height="18" rx="1" fill="#FF8C00"/><rect x="772" y="78" width="18" height="18" rx="1" fill="#FF8C00"/><rect x="790" y="78" width="4" height="18" rx="1" fill="#FF8C00"/><rect x="790" y="78" width="18" height="4" rx="1" fill="#FF8C00"/><rect x="822" y="78" width="4" height="18" rx="1" fill="#FF8C00"/><rect x="808" y="92" width="18" height="4" rx="1" fill="#FF8C00"/><rect x="826" y="78" width="18" height="18" rx="1" fill="#FF8C00"/><rect x="844" y="78" width="18" height="18" rx="1" fill="#FF8C00"/><rect x="862" y="78" width="4" height="18" rx="1" fill="#FF8C00"/><rect x="934" y="78" width="18" height="18" rx="1" fill="#FF8C00"/><rect x="952" y="78" width="18" height="18" rx="1" fill="#FF8C00"/><rect x="970" y="78" width="4" height="18" rx="1" fill="#FF8C00"/><rect x="1006" y="78" width="4" height="18" rx="1" fill="#FF8C00"/><rect x="1006" y="92" width="18" height="4" rx="1" fill="#FF8C00"/><rect x="1024" y="78" width="18" height="18" rx="1" fill="#FF8C00"/><rect x="1042" y="78" width="18" height="18" rx="1" fill="#FF8C00"/><rect x="1060" y="78" width="18" height="18" rx="1" fill="#FF8C00"/><rect x="1078" y="78" width="4" height="18" rx="1" fill="#FF8C00"/><rect x="1078" y="78" width="18" height="4" rx="1" fill="#FF8C00"/><rect x="1110" y="78" width="4" height="18" rx="1" fill="#FF8C00"/><rect x="1096" y="92" width="18" height="4" rx="1" fill="#FF8C00"/><rect x="88" y="96" width="4" height="18" rx="1" fill="#FF8C00"/><rect x="88" y="110" width="18" height="4" rx="1" fill="#FF8C00"/><rect x="106" y="96" width="18" height="18" rx="1" fill="#FF8C00"/><rect x="124" y="96" width="18" height="18" rx="1" fill="#FF8C00"/><rect x="142" y="96" width="4" height="18" rx="1" fill="#FF8C00"/><rect x="142" y="96" width="18" height="4" rx="1" fill="#FF8C00"/><rect x="174" y="96" width="4" height="18" rx="1" fill="#FF8C00"/><rect x="160" y="110" width="18" height="4" rx="1" fill="#FF8C00"/><rect x="214" y="96" width="18" height="18" rx="1" fill="#FF8C00"/><rect x="232" y="96" width="18" height="18" rx="1" fill="#FF8C00"/><rect x="250" y="96" width="4" height="18" rx="1" fill="#FF8C00"/><rect x="322" y="96" width="18" height="18" rx="1" fill="#FF8C00"/><rect x="340" y="96" width="18" height="18" rx="1" fill="#FF8C00"/><rect x="358" y="96" width="4" height="18" rx="1" fill="#FF8C00"/><rect x="376" y="96" width="18" height="18" rx="1" fill="#FF8C00"/><rect x="394" y="96" width="18" height="18" rx="1" fill="#FF8C00"/><rect x="412" y="96" width="4" height="18" rx="1" fill="#FF8C00"/><rect x="520" y="96" width="18" height="18" rx="1" fill="#FF8C00"/><rect x="538" y="96" width="18" height="18" rx="1" fill="#FF8C00"/><rect x="556" y="96" width="4" height="18" rx="1" fill="#FF8C00"/><rect x="628" y="96" width="18" height="18" rx="1" fill="#FF8C00"/><rect x="646" y="96" width="18" height="18" rx="1" fill="#FF8C00"/><rect x="664" y="96" width="4" height="18" rx="1" fill="#FF8C00"/><rect x="682" y="96" width="18" height="18" rx="1" fill="#FF8C00"/><rect x="700" y="96" width="18" height="18" rx="1" fill="#FF8C00"/><rect x="718" y="96" width="4" height="18" rx="1" fill="#FF8C00"/><rect x="718" y="96" width="18" height="4" rx="1" fill="#FF8C00"/><rect x="736" y="110" width="18" height="4" rx="1" fill="#FF8C00"/><rect x="754" y="110" width="18" height="4" rx="1" fill="#FF8C00"/><rect x="772" y="96" width="18" height="18" rx="1" fill="#FF8C00"/><rect x="790" y="96" width="18" height="18" rx="1" fill="#FF8C00"/><rect x="822" y="96" width="4" height="18" rx="1" fill="#FF8C00"/><rect x="808" y="96" width="18" height="4" rx="1" fill="#FF8C00"/><rect x="826" y="96" width="18" height="18" rx="1" fill="#FF8C00"/><rect x="844" y="96" width="18" height="18" rx="1" fill="#FF8C00"/><rect x="862" y="96" width="4" height="18" rx="1" fill="#FF8C00"/><rect x="934" y="96" width="18" height="18" rx="1" fill="#FF8C00"/><rect x="952" y="96" width="18" height="18" rx="1" fill="#FF8C00"/><rect x="970" y="96" width="4" height="18" rx="1" fill="#FF8C00"/><rect x="1006" y="96" width="18" height="18" rx="1" fill="#FF8C00"/><rect x="1024" y="96" width="18" height="18" rx="1" fill="#FF8C00"/><rect x="1042" y="96" width="4" height="18" rx="1" fill="#FF8C00"/><rect x="1042" y="96" width="18" height="4" rx="1" fill="#FF8C00"/><rect x="1060" y="96" width="18" height="18" rx="1" fill="#FF8C00"/><rect x="1078" y="96" width="18" height="18" rx="1" fill="#FF8C00"/><rect x="1110" y="96" width="4" height="18" rx="1" fill="#FF8C00"/><rect x="1096" y="96" width="18" height="4" rx="1" fill="#FF8C00"/><rect x="106" y="114" width="18" height="18" rx="1" fill="#FF8C00"/><rect x="124" y="114" width="18" height="18" rx="1" fill="#FF8C00"/><rect x="142" y="114" width="4" height="18" rx="1" fill="#FF8C00"/><rect x="214" y="114" width="4" height="18" rx="1" fill="#FF8C00"/><rect x="214" y="128" width="18" height="4" rx="1" fill="#FF8C00"/><rect x="232" y="114" width="18" height="18" rx="1" fill="#FF8C00"/><rect x="250" y="114" width="18" height="18" rx="1" fill="#FF8C00"/><rect x="268" y="114" width="18" height="18" rx="1" fill="#FF8C00"/><rect x="286" y="114" width="18" height="18" rx="1" fill="#FF8C00"/><rect x="304" y="114" width="18" height="18" rx="1" fill="#FF8C00"/><rect x="322" y="114" width="18" height="18" rx="1" fill="#FF8C00"/><rect x="340" y="114" width="4" height="18" rx="1" fill="#FF8C00"/><rect x="340" y="114" width="18" height="4" rx="1" fill="#FF8C00"/><rect x="372" y="114" width="4" height="18" rx="1" fill="#FF8C00"/><rect x="358" y="128" width="18" height="4" rx="1" fill="#FF8C00"/><rect x="376" y="114" width="18" height="18" rx="1" fill="#FF8C00"/><rect x="394" y="114" width="18" height="18" rx="1" fill="#FF8C00"/><rect x="412" y="114" width="18" height="18" rx="1" fill="#FF8C00"/><rect x="430" y="114" width="18" height="18" rx="1" fill="#FF8C00"/><rect x="448" y="114" width="18" height="18" rx="1" fill="#FF8C00"/><rect x="466" y="114" width="18" height="18" rx="1" fill="#FF8C00"/><rect x="484" y="114" width="18" height="18" rx="1" fill="#FF8C00"/><rect x="516" y="114" width="4" height="18" rx="1" fill="#FF8C00"/><rect x="502" y="114" width="18" height="4" rx="1" fill="#FF8C00"/><rect x="520" y="114" width="4" height="18" rx="1" fill="#FF8C00"/><rect x="520" y="128" width="18" height="4" rx="1" fill="#FF8C00"/><rect x="538" y="114" width="18" height="18" rx="1" fill="#FF8C00"/><rect x="556" y="114" width="18" height="18" rx="1" fill="#FF8C00"/><rect x="574" y="114" width="18" height="18" rx="1" fill="#FF8C00"/><rect x="592" y="114" width="18" height="18" rx="1" fill="#FF8C00"/><rect x="610" y="114" width="18" height="18" rx="1" fill="#FF8C00"/><rect x="628" y="114" width="18" height="18" rx="1" fill="#FF8C00"/><rect x="646" y="114" width="4" height="18" rx="1" fill="#FF8C00"/><rect x="646" y="114" width="18" height="4" rx="1" fill="#FF8C00"/><rect x="678" y="114" width="4" height="18" rx="1" fill="#FF8C00"/><rect x="664" y="128" width="18" height="4" rx="1" fill="#FF8C00"/><rect x="682" y="114" width="18" height="18" rx="1" fill="#FF8C00"/><rect x="700" y="114" width="18" height="18" rx="1" fill="#FF8C00"/><rect x="718" y="114" width="18" height="18" rx="1" fill="#FF8C00"/><rect x="736" y="114" width="18" height="18" rx="1" fill="#FF8C00"/><rect x="754" y="114" width="18" height="18" rx="1" fill="#FF8C00"/><rect x="772" y="114" width="18" height="18" rx="1" fill="#FF8C00"/><rect x="790" y="114" width="4" height="18" rx="1" fill="#FF8C00"/><rect x="790" y="114" width="18" height="4" rx="1" fill="#FF8C00"/><rect x="822" y="114" width="4" height="18" rx="1" fill="#FF8C00"/><rect x="808" y="128" width="18" height="4" rx="1" fill="#FF8C00"/><rect x="826" y="114" width="4" height="18" rx="1" fill="#FF8C00"/><rect x="826" y="128" width="18" height="4" rx="1" fill="#FF8C00"/><rect x="844" y="114" width="18" height="18" rx="1" fill="#FF8C00"/><rect x="862" y="114" width="18" height="18" rx="1" fill="#FF8C00"/><rect x="880" y="114" width="18" height="18" rx="1" fill="#FF8C00"/><rect x="898" y="114" width="18" height="18" rx="1" fill="#FF8C00"/><rect x="916" y="114" width="18" height="18" rx="1" fill="#FF8C00"/><rect x="934" y="114" width="18" height="18" rx="1" fill="#FF8C00"/><rect x="952" y="114" width="4" height="18" rx="1" fill="#FF8C00"/><rect x="952" y="114" width="18" height="4" rx="1" fill="#FF8C00"/><rect x="984" y="114" width="4" height="18" rx="1" fill="#FF8C00"/><rect x="970" y="128" width="18" height="4" rx="1" fill="#FF8C00"/><rect x="988" y="114" width="18" height="18" rx="1" fill="#FF8C00"/><rect x="1006" y="114" width="18" height="18" rx="1" fill="#FF8C00"/><rect x="1024" y="114" width="4" height="18" rx="1" fill="#FF8C00"/><rect x="1024" y="114" width="18" height="4" rx="1" fill="#FF8C00"/><rect x="1056" y="114" width="4" height="18" rx="1" fill="#FF8C00"/><rect x="1042" y="128" width="18" height="4" rx="1" fill="#FF8C00"/><rect x="1078" y="114" width="18" height="18" rx="1" fill="#FF8C00"/><rect x="1096" y="114" width="18" height="18" rx="1" fill="#FF8C00"/><rect x="1128" y="114" width="4" height="18" rx="1" fill="#FF8C00"/><rect x="1114" y="114" width="18" height="4" rx="1" fill="#FF8C00"/><rect x="106" y="132" width="4" height="18" rx="1" fill="#FF8C00"/><rect x="106" y="146" width="18" height="4" rx="1" fill="#FF8C00"/><rect x="124" y="146" width="18" height="4" rx="1" fill="#FF8C00"/><rect x="156" y="132" width="4" height="18" rx="1" fill="#FF8C00"/><rect x="142" y="146" width="18" height="4" rx="1" fill="#FF8C00"/><rect x="232" y="132" width="4" height="18" rx="1" fill="#FF8C00"/><rect x="232" y="146" width="18" height="4" rx="1" fill="#FF8C00"/><rect x="250" y="146" width="18" height="4" rx="1" fill="#FF8C00"/><rect x="268" y="146" width="18" height="4" rx="1" fill="#FF8C00"/><rect x="286" y="146" width="18" height="4" rx="1" fill="#FF8C00"/><rect x="304" y="146" width="18" height="4" rx="1" fill="#FF8C00"/><rect x="322" y="146" width="18" height="4" rx="1" fill="#FF8C00"/><rect x="354" y="132" width="4" height="18" rx="1" fill="#FF8C00"/><rect x="340" y="146" width="18" height="4" rx="1" fill="#FF8C00"/><rect x="376" y="132" width="4" height="18" rx="1" fill="#FF8C00"/><rect x="376" y="146" width="18" height="4" rx="1" fill="#FF8C00"/><rect x="394" y="146" width="18" height="4" rx="1" fill="#FF8C00"/><rect x="412" y="146" width="18" height="4" rx="1" fill="#FF8C00"/><rect x="430" y="146" width="18" height="4" rx="1" fill="#FF8C00"/><rect x="448" y="146" width="18" height="4" rx="1" fill="#FF8C00"/><rect x="466" y="146" width="18" height="4" rx="1" fill="#FF8C00"/><rect x="484" y="146" width="18" height="4" rx="1" fill="#FF8C00"/><rect x="516" y="132" width="4" height="18" rx="1" fill="#FF8C00"/><rect x="502" y="146" width="18" height="4" rx="1" fill="#FF8C00"/><rect x="538" y="132" width="4" height="18" rx="1" fill="#FF8C00"/><rect x="538" y="146" width="18" height="4" rx="1" fill="#FF8C00"/><rect x="556" y="146" width="18" height="4" rx="1" fill="#FF8C00"/><rect x="574" y="146" width="18" height="4" rx="1" fill="#FF8C00"/><rect x="592" y="146" width="18" height="4" rx="1" fill="#FF8C00"/><rect x="610" y="146" width="18" height="4" rx="1" fill="#FF8C00"/><rect x="628" y="146" width="18" height="4" rx="1" fill="#FF8C00"/><rect x="660" y="132" width="4" height="18" rx="1" fill="#FF8C00"/><rect x="646" y="146" width="18" height="4" rx="1" fill="#FF8C00"/><rect x="682" y="132" width="4" height="18" rx="1" fill="#FF8C00"/><rect x="682" y="146" width="18" height="4" rx="1" fill="#FF8C00"/><rect x="700" y="146" width="18" height="4" rx="1" fill="#FF8C00"/><rect x="718" y="146" width="18" height="4" rx="1" fill="#FF8C00"/><rect x="736" y="146" width="18" height="4" rx="1" fill="#FF8C00"/><rect x="754" y="146" width="18" height="4" rx="1" fill="#FF8C00"/><rect x="772" y="146" width="18" height="4" rx="1" fill="#FF8C00"/><rect x="804" y="132" width="4" height="18" rx="1" fill="#FF8C00"/><rect x="790" y="146" width="18" height="4" rx="1" fill="#FF8C00"/><rect x="844" y="132" width="4" height="18" rx="1" fill="#FF8C00"/><rect x="844" y="146" width="18" height="4" rx="1" fill="#FF8C00"/><rect x="862" y="146" width="18" height="4" rx="1" fill="#FF8C00"/><rect x="880" y="146" width="18" height="4" rx="1" fill="#FF8C00"/><rect x="898" y="146" width="18" height="4" rx="1" fill="#FF8C00"/><rect x="916" y="146" width="18" height="4" rx="1" fill="#FF8C00"/><rect x="934" y="146" width="18" height="4" rx="1" fill="#FF8C00"/><rect x="966" y="132" width="4" height="18" rx="1" fill="#FF8C00"/><rect x="952" y="146" width="18" height="4" rx="1" fill="#FF8C00"/><rect x="988" y="132" width="4" height="18" rx="1" fill="#FF8C00"/><rect x="988" y="146" width="18" height="4" rx="1" fill="#FF8C00"/><rect x="1006" y="146" width="18" height="4" rx="1" fill="#FF8C00"/><rect x="1038" y="132" width="4" height="18" rx="1" fill="#FF8C00"/><rect x="1024" y="146" width="18" height="4" rx="1" fill="#FF8C00"/><rect x="1078" y="132" width="4" height="18" rx="1" fill="#FF8C00"/><rect x="1078" y="146" width="18" height="4" rx="1" fill="#FF8C00"/><rect x="1096" y="146" width="18" height="4" rx="1" fill="#FF8C00"/><rect x="1128" y="132" width="4" height="18" rx="1" fill="#FF8C00"/><rect x="1114" y="146" width="18" height="4" rx="1" fill="#FF8C00"/>
  </g>

  <text x="96" y="361.72" fill="white" font-family="Arial, Helvetica, sans-serif" font-size="46" font-weight="800">Run AI coding agents in a sandboxed container.</text>
  <text x="96" y="421.72" fill="#BCBFC9" font-family="Arial, Helvetica, sans-serif" font-size="28" font-weight="500">Your home directory stays home.</text>

  <rect x="96" y="469.72" width="428" height="56" rx="14" fill="#14141A" stroke="white" stroke-opacity="0.09"/>
  <text x="122" y="505.72" fill="#FFB66E" font-family="'Courier New', monospace" font-size="21" font-weight="700">brew install finbarr/tap/yolobox</text>
  <text x="1108" y="505.72" text-anchor="end" fill="#8F939C" font-family="Arial, Helvetica, sans-serif" font-size="24" font-weight="700">yolobox.dev</text>
</svg>